<svg height='100px' width='100px'  fill="#ED1F24" xmlns="http://www.w3.org/2000/svg" xmlns:xlink="http://www.w3.org/1999/xlink" version="1.1" x="0px" y="0px" viewBox="0 0 24 24" enable-background="new 0 0 24 24" xml:space="preserve"><path d="M16.583,6.59H3.378l1.769-1.77c0.348-0.348,0.348-0.911,0-1.258c-0.347-0.348-0.91-0.348-1.258,0L0.603,6.85  C0.521,6.932,0.456,7.03,0.411,7.14c-0.09,0.217-0.09,0.462,0,0.68c0.045,0.109,0.11,0.208,0.192,0.29l3.287,3.288  c0.174,0.173,0.401,0.26,0.629,0.26s0.456-0.087,0.629-0.26c0.348-0.347,0.348-0.911,0-1.258L3.379,8.369h13.204  c2.835,0,5.143,2.307,5.143,5.142v0.423c0,2.835-2.308,5.143-5.143,5.143H1.231c-0.492,0-0.89,0.398-0.89,0.89  c0,0.492,0.398,0.89,0.89,0.89h15.352c3.817,0,6.922-3.104,6.922-6.922v-0.423C23.505,9.695,20.4,6.59,16.583,6.59z"></path></svg>