<svg height='100px' width='100px'  fill="#ED1F24" xmlns="http://www.w3.org/2000/svg" xmlns:xlink="http://www.w3.org/1999/xlink" xml:space="preserve" version="1.1" style="shape-rendering:geometricPrecision;text-rendering:geometricPrecision;image-rendering:optimizeQuality;" viewBox="0 0 359 356" x="0px" y="0px" fill-rule="evenodd" clip-rule="evenodd"><defs><style type="text/css">
  </style></defs><g><path  d="M37 0l285 0c20,0 37,17 37,37l0 242c0,21 -17,37 -37,37l-150 0 -90 39c-7,3 -14,-2 -14,-9l0 -30 -31 0c-20,0 -37,-16 -37,-37l0 -242c0,-20 17,-37 37,-37zm285 20l-285 0c-9,0 -17,8 -17,17l0 242c0,10 8,17 17,17l41 0c6,0 10,5 10,10l0 25 77 -33c1,-1 3,-2 5,-2l152 0c9,0 17,-7 17,-17l0 -242c0,-9 -8,-17 -17,-17z"></path><path class="fil0" d="M76 114c-6,0 -10,-5 -10,-10 0,-6 4,-10 10,-10l207 0c5,0 10,4 10,10 0,5 -5,10 -10,10l-207 0z"></path><path class="fil0" d="M76 168c-6,0 -10,-4 -10,-10 0,-5 4,-10 10,-10l150 0c5,0 10,5 10,10 0,6 -5,10 -10,10l-150 0z"></path><path class="fil0" d="M76 223c-6,0 -10,-5 -10,-10 0,-6 4,-10 10,-10l150 0c5,0 10,4 10,10 0,5 -5,10 -10,10l-150 0z"></path></g></svg>