<?xml version="1.0" encoding="utf-8"?>
<!-- Generator: Adobe Illustrator 21.1.0, SVG Export Plug-In . SVG Version: 6.00 Build 0)  -->
<svg version="1.1" id="Laag_1"  fill="#ED1F24" xmlns="http://www.w3.org/2000/svg" xmlns:xlink="http://www.w3.org/1999/xlink" x="0px" y="0px"
	 viewBox="0 0 100 100" style="enable-background:new 0 0 100 100;" xml:space="preserve">
<g>
	<path d="M91.6,29.1c0-3.1-1.1-5.8-3.3-8C82.8,15.8,77.3,10.3,71.9,5c-2.5-2.5-5.5-3.8-9.1-3.8H23.8c-8.6,0-15,6.4-15,15
		c0,1.1,0.9,2,1.9,2l0,0c1.1,0,2-0.9,2-1.9c0-6.4,4.8-11.1,11.1-11.1h39.1c2.5,0,4.5,0.8,6.3,2.5c5.5,5.5,10.9,10.8,16.4,16.3
		c0.2,0.2,0.3,0.5,0.5,0.6H72.7c-2.8,0-5.2-2.3-5.2-5.2v-4.1c0-1.1-0.9-2-2-2s-2,0.9-2,2v3.9c0,5,4.1,9.1,9.1,9.1h15
		c0,0.2,0,0.5,0,0.6c0,13.3,0,29.4,0,42.7v11.9c0,6.6-4.8,11.4-11.4,11.4H23.6c-3.1,0-6.1-1.1-8.1-3.1s-3.1-5-3.1-8.1V37.2
		c0-1.1-0.9-2-2-2S8.6,35.9,8.6,37v46.6c0,4.2,1.6,8.1,4.4,10.9s6.7,4.4,10.9,4.4h52.5c8.9,0,15.3-6.4,15.3-15.3V71.7
		C91.6,58.4,91.6,42.3,91.6,29.1z"/>
	<circle cx="10.6" cy="30" r="2"/>
	<path d="M77,55.8H40.5c-0.5,0-0.8,0.3-0.8,0.8c0,0.5,0.3,0.8,0.8,0.8H77c0.5,0,0.8-0.3,0.8-0.8C77.8,56.1,77.5,55.8,77,55.8z"/>
	<path d="M22.2,56.6c0,0.5,0.3,0.8,0.8,0.8h11.1c0.5,0,0.8-0.3,0.8-0.8c0-0.5-0.3-0.8-0.8-0.8H23C22.7,55.8,22.2,56.1,22.2,56.6z"/>
	<path d="M77,68.6H58.6c-0.5,0-0.8,0.3-0.8,0.8c0,0.5,0.3,0.8,0.8,0.8h18.6c0.5,0,0.8-0.3,0.8-0.8C78,68.9,77.5,68.6,77,68.6z"/>
	<path d="M23,70.2H52c0.5,0,0.8-0.3,0.8-0.8c0-0.5-0.3-0.8-0.8-0.8H23c-0.5,0-0.8,0.3-0.8,0.8C22.2,69.8,22.7,70.2,23,70.2z"/>
	<path d="M77,81.4H33.1c-0.5,0-0.8,0.3-0.8,0.8s0.3,0.8,0.8,0.8h44.1c0.5,0,0.8-0.3,0.8-0.8S77.5,81.4,77,81.4z"/>
	<path d="M23,83h3.6c0.5,0,0.8-0.3,0.8-0.8s-0.3-0.8-0.8-0.8H23c-0.5,0-0.8,0.3-0.8,0.8S22.7,83,23,83z"/>
</g>
</svg>
