<svg height='100px' width='100px'  fill="#ffffff" xmlns="http://www.w3.org/2000/svg" xmlns:xlink="http://www.w3.org/1999/xlink" viewBox="0 0 100 100" version="1.1" x="0px" y="0px"><title>Close 1.1</title><desc>Created with Sketch.</desc><g stroke="none" stroke-width="1" fill="none" fill-rule="evenodd"><g fill="#ffffff"><polygon transform="translate(50.000000, 50.000000) rotate(45.000000) translate(-50.000000, -50.000000) " points="50 49 71.5 27.5 72.5 28.5 51 50 72.5 71.5 71.5 72.5 50 51 28.5 72.5 27.5 71.5 49 50 27.5 28.5 28.5 27.5"></polygon></g><g fill="#ffffff"><polygon transform="translate(50.000000, 50.000000) rotate(45.000000) translate(-50.000000, -50.000000) " points="50 49 71.5 27.5 72.5 28.5 51 50 72.5 71.5 71.5 72.5 50 51 28.5 72.5 27.5 71.5 49 50 27.5 28.5 28.5 27.5"></polygon></g></g></svg>