<svg height='100px' width='100px'  fill="#ED1F24" xmlns="http://www.w3.org/2000/svg" xmlns:xlink="http://www.w3.org/1999/xlink" version="1.1" x="0px" y="0px" viewBox="0 0 64 64" style="enable-background:new 0 0 64 64;" xml:space="preserve"><g><path d="M58.6,18.6c0-2-0.7-3.7-2.1-5.1c-3.5-3.4-7-6.9-10.5-10.3c-1.6-1.6-3.5-2.4-5.8-2.4l-25,0c-5.5,0-9.6,4.1-9.6,9.6   c0,0.7,0.6,1.3,1.2,1.3c0,0,0,0,0,0c0.7,0,1.3-0.6,1.3-1.2c0-4.1,3.1-7.1,7.1-7.1l25,0c1.6,0,2.9,0.5,4,1.6   c3.5,3.5,7,6.9,10.5,10.4c0.1,0.1,0.2,0.3,0.3,0.4h-8.5c-1.8,0-3.3-1.5-3.3-3.3V9.9c0-0.7-0.6-1.3-1.3-1.3s-1.3,0.6-1.3,1.3v2.5   c0,3.2,2.6,5.8,5.8,5.8H56c0,0.1,0,0.3,0,0.4c0,8.5,0,18.8,0,27.3v7.6c0,4.2-3.1,7.3-7.3,7.3l-33.6,0c-2,0-3.9-0.7-5.2-2   c-1.3-1.3-2-3.2-2-5.2l0-29.8c0-0.7-0.6-1.3-1.3-1.3S5.5,23,5.5,23.7l0,29.8c0,2.7,1,5.2,2.8,7c1.8,1.8,4.3,2.8,7,2.8l33.6,0   c5.7,0,9.8-4.1,9.8-9.8v-7.6C58.6,37.4,58.6,27.1,58.6,18.6z"></path><circle cx="6.8" cy="19.2" r="1.3"></circle><path d="M19.8,10.5c-0.3,0-0.5,0.2-0.5,0.5v1.7c-0.4,0-0.9,0.1-1.2,0.2c-1.7,0.5-2.8,2.2-2.6,3.8c0.3,2.2,2.8,3.1,4.1,3.6l0.6,0.2   c0.9,0.3,1.7,0.6,2.3,1.2c0.6,0.5,0.9,1.3,0.9,2c0,0.7-0.3,1.4-0.9,2c-0.6,0.6-1.5,0.9-2.6,1c-0.8,0-1.7,0-2.8-0.2   c-0.3-0.1-0.6-0.1-0.8-0.2c-0.3-0.1-0.5,0.1-0.6,0.3c-0.1,0.3,0.1,0.5,0.3,0.6c0.3,0.1,0.6,0.2,0.9,0.2c1,0.2,1.8,0.3,2.5,0.3v1.7   c0,0.3,0.2,0.5,0.5,0.5s0.5-0.2,0.5-0.5v-1.7c1.1-0.2,2-0.5,2.7-1.2c0.8-0.7,1.2-1.7,1.3-2.7c0-1-0.4-2-1.2-2.7   c-0.7-0.7-1.8-1.1-2.7-1.4L20,19.4l-0.2,0.5l0-0.5c-1.6-0.6-3.2-1.4-3.4-2.8c-0.2-1.2,0.7-2.4,1.9-2.7c1.2-0.4,2.8-0.2,4.3,0.4   c0.3,0.1,0.5,0,0.6-0.3c0.1-0.3,0-0.5-0.3-0.6c-0.9-0.4-1.8-0.6-2.7-0.6V11C20.3,10.7,20.1,10.5,19.8,10.5z"></path><path d="M49.3,35.7H25.9c-0.3,0-0.5,0.2-0.5,0.5s0.2,0.5,0.5,0.5h23.4c0.3,0,0.5-0.2,0.5-0.5S49.6,35.7,49.3,35.7z"></path><path d="M14.2,36.2c0,0.3,0.2,0.5,0.5,0.5h7.1c0.3,0,0.5-0.2,0.5-0.5s-0.2-0.5-0.5-0.5h-7.1C14.5,35.7,14.2,35.9,14.2,36.2z"></path><path d="M49.3,43.9H37.5c-0.3,0-0.5,0.2-0.5,0.5s0.2,0.5,0.5,0.5h11.9c0.3,0,0.5-0.2,0.5-0.5S49.6,43.9,49.3,43.9z"></path><path d="M14.7,44.9h18.6c0.3,0,0.5-0.2,0.5-0.5s-0.2-0.5-0.5-0.5H14.7c-0.3,0-0.5,0.2-0.5,0.5S14.5,44.9,14.7,44.9z"></path><path d="M49.3,52.1H21.2c-0.3,0-0.5,0.2-0.5,0.5s0.2,0.5,0.5,0.5h28.2c0.3,0,0.5-0.2,0.5-0.5S49.6,52.1,49.3,52.1z"></path><path d="M14.7,53.1h2.3c0.3,0,0.5-0.2,0.5-0.5s-0.2-0.5-0.5-0.5h-2.3c-0.3,0-0.5,0.2-0.5,0.5S14.5,53.1,14.7,53.1z"></path></g></svg>