<?xml version="1.0" encoding="utf-8"?>
<!-- Generator: Adobe Illustrator 23.0.3, SVG Export Plug-In . SVG Version: 6.00 Build 0)  -->
<svg version="1.1" id="Layer_1" xmlns="http://www.w3.org/2000/svg" xmlns:xlink="http://www.w3.org/1999/xlink" x="0px" y="0px"
	 viewBox="0 0 100 100" style="enable-background:new 0 0 100 100;" xml:space="preserve">
<style type="text/css">
	.st0{fill-rule:evenodd;clip-rule:evenodd;fill:#ED1F24;}
</style>
<title>+</title>
<desc>Created with Sketch.</desc>
<g>
	<g transform="translate(-131.000000, -237.000000)">
		<path class="st0" d="M181.5,281.1l13.7-13.7c1.2-1.2,3.2-1.2,4.4,0l2,2c1.2,1.2,1.2,3.2,0,4.4l-13.7,13.7l13.7,13.7
			c1.2,1.2,1.2,3.2,0,4.4l-2,2c-1.2,1.2-3.2,1.2-4.4,0l-13.7-13.7l-13.7,13.7c-1.2,1.2-3.2,1.2-4.4,0l-2-2c-1.2-1.2-1.2-3.2,0-4.4
			l13.7-13.7l-13.7-13.7c-1.2-1.2-1.2-3.2,0-4.4l2-2c1.2-1.2,3.2-1.2,4.4,0L181.5,281.1z M145.6,322.4c-19.5-19.5-19.5-51.2,0-70.7
			c19.5-19.5,51.2-19.5,70.7,0c19.5,19.5,19.5,51.2,0,70.7C196.8,341.9,165.2,341.9,145.6,322.4z"/>
	</g>
</g>
</svg>
