<svg height='100px' width='100px'  fill="#ED1F24" xmlns="http://www.w3.org/2000/svg" xmlns:xlink="http://www.w3.org/1999/xlink" version="1.1" x="0px" y="0px" viewBox="0 0 100 100" style="enable-background:new 0 0 100 100;" xml:space="preserve"><style type="text/css">
	.st0{fill-rule:evenodd;clip-rule:evenodd;}
</style><path class="st0" d="M87.2,95.9H13.8c-4.8,0-8.6-3.9-8.6-8.6V13.8C5.1,9,9,5.1,13.8,5.1h73.4c4.8,0,8.6,3.9,8.6,8.6v73.4  C95.9,92,92,95.9,87.2,95.9z M75.2,32.3c-1.6-1.7-4.2-1.7-5.8,0L43.2,59.6L31.6,47.4c-1.6-1.7-4.2-1.7-5.8,0c-1.6,1.7-1.6,4.4,0,6.1  l14.5,15.1c1.6,1.7,4.2,1.7,5.8,0l29.1-30.3C76.8,36.7,76.8,34,75.2,32.3z"></path></svg>