<svg height='100px' width='100px'  fill="#ED1F24" xmlns="http://www.w3.org/2000/svg" viewBox="0 0 32 32" x="0px" y="0px"><title>Edit </title><g><path d="M27,30H5a3,3,0,0,1-3-3V5A3,3,0,0,1,5,2H19a1,1,0,0,1,0,2H5A1,1,0,0,0,4,5V27a1,1,0,0,0,1,1H27a1,1,0,0,0,1-1V13a1,1,0,0,1,2,0V27A3,3,0,0,1,27,30Z"></path><path d="M10,23a1,1,0,0,1-.71-.29A1,1,0,0,1,9,21.8l1.1-5.34a1,1,0,0,1,.27-.51L23.83,2.51a4,4,0,0,1,5.66,5.66L16.05,21.61a1.05,1.05,0,0,1-.51.27L10.2,23Zm5.34-2.1h0ZM12,17.15l-.73,3.56L14.85,20,28.07,6.76a2,2,0,1,0-2.83-2.83Z"></path></g></svg>