<?xml version="1.0" encoding="utf-8"?>
<!-- Generator: Adobe Illustrator 21.1.0, SVG Export Plug-In . SVG Version: 6.00 Build 0)  -->
<svg version="1.1" id="Laag_1" xmlns="http://www.w3.org/2000/svg" xmlns:xlink="http://www.w3.org/1999/xlink" x="0px" y="0px"
	 viewBox="0 0 72.2 59.5" style="enable-background:new 0 0 72.2 59.5;" xml:space="preserve">
<style type="text/css">
	.st0{fill:#ED1F24;}
</style>
<title>06</title>
<path class="st0" d="M72.2,11.3V4c0-2.2-1.8-4-4-4H4C1.8,0,0,1.8,0,4v7.3c0,2.2,1.7,3.9,3.9,4v34.2c0,5.5,4.5,10,10,10h44.5
	c5.5,0,10-4.5,10-10V15.2C70.5,15.2,72.2,13.4,72.2,11.3z M64.4,49.5c0,3.3-2.7,6-6,6H13.9c-3.3,0-6-2.7-6-6V15.3h56.5V49.5z
	 M4,11.3V4h64.2v7.3L4,11.3z"/>
<path class="st0" d="M23.7,26.2h24.8c1.1,0,2-0.9,2-2s-0.9-2-2-2H23.7c-1.1,0-2,0.9-2,2S22.6,26.2,23.7,26.2z"/>
</svg>
