<?xml version="1.0" encoding="utf-8"?>
<!-- Generator: Adobe Illustrator 16.0.0, SVG Export Plug-In . SVG Version: 6.00 Build 0)  -->
<!DOCTYPE svg PUBLIC "-//W3C//DTD SVG 1.1//EN" "http://www.w3.org/Graphics/SVG/1.1/DTD/svg11.dtd">
<svg version="1.1" id="Layer_1" xmlns="http://www.w3.org/2000/svg" xmlns:xlink="http://www.w3.org/1999/xlink" x="0px" y="0px"
	 width="255.002px" height="61.319px" viewBox="0 0 255.002 61.319" enable-background="new 0 0 255.002 61.319"
	 xml:space="preserve">
<g>
	<path fill="#ED1F24" d="M125.339,6.735h31.964v6.534h-12.764v27.194h-6.437V13.27h-12.764V6.735z"/>
	<path fill="#ED1F24" d="M160.609,6.712h20.413c3.6,0,6.422,1.147,8.465,3.443c0.91,0.905,1.543,1.779,1.896,2.623
		c0.793,1.687,1.19,3.334,1.19,4.942v0.96c0,2.468-1.007,4.88-3.021,7.237c-1.293,1.312-2.469,2.155-3.526,2.53
		c2.674,3.029,4.012,7.034,4.012,12.016h-6.415v-0.516c0-3.685-1.403-6.613-4.21-8.783c-1.603-1.202-3.696-1.804-6.283-1.804
		h-12.521V22.85h20.81c2.277,0,3.82-1.194,4.629-3.583c0.088-0.484,0.146-0.891,0.177-1.219c0-1.327-0.522-2.529-1.565-3.606
		c-0.896-0.75-1.852-1.125-2.865-1.125c0-0.062-0.309-0.093-0.926-0.093h-20.259V6.712z"/>
</g>
<g>
	<path d="M11.697,48.184H9.823v5.363H9.149v-5.363H7.275V47.52h4.422V48.184z"/>
	<path d="M12.491,47.52h0.673v2.554h3.029V47.52h0.673v6.027h-0.673v-2.81h-3.029v2.81h-0.673V47.52z"/>
	<path d="M18.275,47.52h3.565v0.664h-2.893v1.89h2.7v0.664h-2.7v2.146h3.037v0.664h-3.709V47.52z"/>
	<path d="M23.026,47.52h1.45c0.272,0,0.543,0.017,0.813,0.051c0.27,0.034,0.511,0.108,0.725,0.222
		c0.213,0.113,0.387,0.279,0.521,0.498c0.134,0.219,0.2,0.515,0.2,0.89c0,0.442-0.125,0.8-0.376,1.072s-0.598,0.446-1.042,0.52
		l1.61,2.775h-0.825l-1.538-2.707h-0.866v2.707h-0.673V47.52z M23.699,50.176H24.3c0.187,0,0.381-0.006,0.581-0.018
		c0.2-0.011,0.384-0.048,0.553-0.11s0.307-0.16,0.417-0.294c0.109-0.133,0.165-0.324,0.165-0.574c0-0.216-0.04-0.389-0.121-0.52
		c-0.08-0.131-0.186-0.231-0.316-0.302c-0.131-0.071-0.278-0.118-0.44-0.141c-0.163-0.022-0.327-0.034-0.493-0.034h-0.946V50.176z"
		/>
	<path d="M27.922,47.52h1.001l1.923,4.725h0.016l1.939-4.725h0.978v6.027h-0.673V48.49H33.09l-2.035,5.057h-0.409l-2.035-5.057
		h-0.016v5.057h-0.673V47.52z"/>
	<path d="M37.825,53.7c-0.433,0-0.83-0.08-1.19-0.238c-0.361-0.159-0.673-0.379-0.938-0.66c-0.265-0.28-0.47-0.615-0.617-1.004
		c-0.147-0.39-0.22-0.811-0.22-1.265s0.073-0.875,0.22-1.265c0.147-0.389,0.353-0.724,0.617-1.004
		c0.264-0.281,0.577-0.501,0.938-0.66c0.36-0.159,0.757-0.238,1.19-0.238s0.829,0.079,1.189,0.238
		c0.361,0.159,0.673,0.379,0.938,0.66c0.265,0.28,0.47,0.615,0.617,1.004c0.147,0.39,0.22,0.811,0.22,1.265s-0.073,0.875-0.22,1.265
		c-0.147,0.389-0.353,0.724-0.617,1.004c-0.264,0.281-0.577,0.501-0.938,0.66C38.654,53.62,38.258,53.7,37.825,53.7z M37.825,53.036
		c0.331,0,0.634-0.065,0.909-0.196c0.275-0.13,0.511-0.309,0.709-0.536c0.198-0.227,0.351-0.492,0.461-0.796
		c0.109-0.304,0.164-0.629,0.164-0.975s-0.055-0.671-0.164-0.975c-0.11-0.304-0.263-0.569-0.461-0.796
		c-0.198-0.228-0.434-0.406-0.709-0.537c-0.275-0.13-0.578-0.195-0.909-0.195c-0.332,0-0.635,0.065-0.91,0.195
		c-0.275,0.131-0.511,0.31-0.709,0.537c-0.198,0.227-0.351,0.492-0.461,0.796c-0.109,0.304-0.164,0.629-0.164,0.975
		s0.055,0.671,0.164,0.975c0.11,0.304,0.263,0.569,0.461,0.796c0.198,0.228,0.434,0.406,0.709,0.536
		C37.19,52.971,37.494,53.036,37.825,53.036z"/>
	<path d="M46.694,53.139c-0.326,0.192-0.669,0.335-1.029,0.425c-0.361,0.091-0.725,0.137-1.094,0.137
		c-0.443,0-0.849-0.077-1.218-0.229c-0.369-0.153-0.688-0.369-0.958-0.647c-0.27-0.278-0.479-0.611-0.629-1
		c-0.15-0.389-0.225-0.819-0.225-1.29c0-0.477,0.079-0.909,0.236-1.299c0.158-0.389,0.375-0.721,0.653-0.995
		c0.277-0.275,0.601-0.49,0.969-0.644s0.767-0.229,1.194-0.229c0.374,0,0.733,0.06,1.078,0.179c0.345,0.119,0.653,0.323,0.925,0.613
		l-0.504,0.562c-0.192-0.222-0.426-0.392-0.701-0.511c-0.275-0.119-0.557-0.179-0.845-0.179c-0.326,0-0.628,0.062-0.906,0.188
		s-0.52,0.298-0.725,0.519c-0.206,0.222-0.366,0.485-0.48,0.792c-0.115,0.307-0.172,0.642-0.172,1.005
		c0,0.357,0.057,0.689,0.172,0.996c0.115,0.307,0.275,0.571,0.48,0.796s0.453,0.398,0.741,0.523
		c0.289,0.125,0.606,0.188,0.954,0.188c0.229,0,0.47-0.03,0.721-0.09c0.251-0.06,0.48-0.146,0.689-0.259V50.84h-1.306v-0.664h1.979
		V53.139z"/>
	<path d="M48.105,47.52h1.45c0.272,0,0.543,0.017,0.813,0.051c0.27,0.034,0.511,0.108,0.725,0.222
		c0.213,0.113,0.387,0.279,0.521,0.498c0.134,0.219,0.2,0.515,0.2,0.89c0,0.442-0.125,0.8-0.376,1.072s-0.598,0.446-1.042,0.52
		l1.61,2.775h-0.825l-1.538-2.707h-0.866v2.707h-0.673V47.52z M48.778,50.176h0.601c0.187,0,0.381-0.006,0.581-0.018
		c0.2-0.011,0.384-0.048,0.553-0.11s0.307-0.16,0.417-0.294c0.109-0.133,0.165-0.324,0.165-0.574c0-0.216-0.04-0.389-0.121-0.52
		c-0.08-0.131-0.186-0.231-0.316-0.302c-0.131-0.071-0.278-0.118-0.44-0.141c-0.163-0.022-0.327-0.034-0.493-0.034h-0.946V50.176z"
		/>
	<path d="M54.843,47.52h0.633l2.412,6.027h-0.785l-0.577-1.481h-2.836l-0.585,1.481h-0.761L54.843,47.52z M55.148,48.438h-0.016
		l-1.178,2.963h2.315L55.148,48.438z"/>
	<path d="M58.641,47.52h1.683c0.262,0,0.511,0.027,0.749,0.081s0.449,0.145,0.633,0.272c0.184,0.127,0.331,0.298,0.44,0.511
		s0.164,0.476,0.164,0.787c0,0.329-0.059,0.602-0.176,0.817c-0.117,0.216-0.268,0.386-0.453,0.511
		c-0.184,0.125-0.386,0.213-0.605,0.264c-0.219,0.052-0.427,0.077-0.625,0.077h-1.138v2.707h-0.673V47.52z M59.314,50.176h1.138
		c0.337,0,0.61-0.081,0.821-0.243c0.211-0.161,0.317-0.412,0.317-0.753s-0.106-0.592-0.317-0.754
		c-0.211-0.161-0.484-0.242-0.821-0.242h-1.138V50.176z"/>
	<path d="M63.392,47.52h0.673v2.554h3.029V47.52h0.673v6.027h-0.673v-2.81h-3.029v2.81h-0.673V47.52z"/>
	<path d="M69.177,47.52h0.673v6.027h-0.673V47.52z"/>
	<path d="M75.234,48.763c-0.171-0.244-0.382-0.428-0.633-0.55c-0.251-0.122-0.513-0.183-0.785-0.183
		c-0.315,0-0.605,0.068-0.87,0.204c-0.264,0.137-0.493,0.319-0.685,0.549c-0.192,0.23-0.342,0.497-0.449,0.801
		s-0.16,0.62-0.16,0.949c0,0.352,0.053,0.68,0.16,0.983s0.255,0.567,0.445,0.792c0.189,0.224,0.417,0.401,0.681,0.531
		c0.264,0.131,0.557,0.196,0.877,0.196c0.347,0,0.657-0.072,0.929-0.217c0.272-0.146,0.51-0.354,0.713-0.626l0.505,0.451
		c-0.256,0.363-0.565,0.63-0.925,0.8c-0.36,0.171-0.768,0.256-1.222,0.256c-0.406,0-0.786-0.08-1.138-0.238
		c-0.353-0.159-0.658-0.379-0.917-0.66c-0.259-0.28-0.462-0.614-0.609-1s-0.22-0.809-0.22-1.269c0-0.442,0.071-0.857,0.212-1.243
		s0.34-0.721,0.597-1.005c0.256-0.283,0.561-0.508,0.913-0.672c0.353-0.165,0.74-0.247,1.162-0.247c0.384,0,0.754,0.074,1.109,0.222
		c0.355,0.147,0.653,0.389,0.894,0.724L75.234,48.763z"/>
	<path d="M80.971,47.52h0.633l2.412,6.027H83.23l-0.577-1.481h-2.836l-0.585,1.481h-0.761L80.971,47.52z M81.275,48.438h-0.016
		l-1.178,2.963h2.315L81.275,48.438z"/>
	<path d="M84.769,47.52h0.849l3.285,5.006h0.016V47.52h0.673v6.027h-0.849l-3.285-5.006h-0.016v5.006h-0.673V47.52z"/>
	<path d="M90.898,47.52h2.179c0.187,0,0.385,0.022,0.593,0.068c0.208,0.045,0.416,0.117,0.621,0.217s0.403,0.229,0.593,0.388
		c0.189,0.158,0.356,0.35,0.501,0.574c0.144,0.225,0.259,0.482,0.344,0.774c0.085,0.293,0.128,0.623,0.128,0.992
		s-0.043,0.699-0.128,0.992c-0.085,0.292-0.2,0.55-0.344,0.774c-0.145,0.225-0.312,0.416-0.501,0.574
		c-0.189,0.159-0.387,0.288-0.593,0.388s-0.413,0.172-0.621,0.217c-0.208,0.046-0.406,0.068-0.593,0.068h-2.179V47.52z
		 M91.571,52.883h1.282c0.326,0,0.627-0.045,0.905-0.136c0.277-0.091,0.518-0.231,0.721-0.422c0.203-0.19,0.363-0.433,0.48-0.728
		s0.176-0.65,0.176-1.064s-0.059-0.77-0.176-1.064s-0.278-0.537-0.48-0.728c-0.203-0.19-0.444-0.331-0.721-0.422
		c-0.278-0.091-0.58-0.136-0.905-0.136h-1.282V52.883z"/>
	<path d="M99.167,47.52h1.73c0.235,0,0.465,0.025,0.689,0.076c0.224,0.052,0.424,0.135,0.601,0.251
		c0.176,0.117,0.319,0.269,0.429,0.456s0.165,0.42,0.165,0.698c0,0.352-0.09,0.643-0.269,0.872c-0.179,0.23-0.421,0.394-0.725,0.49
		v0.017c0.182,0.017,0.351,0.066,0.509,0.149c0.157,0.082,0.293,0.188,0.409,0.318c0.115,0.131,0.204,0.283,0.268,0.456
		c0.064,0.173,0.096,0.359,0.096,0.558c0,0.335-0.065,0.61-0.196,0.826c-0.131,0.215-0.302,0.387-0.513,0.515
		s-0.449,0.217-0.713,0.269c-0.265,0.051-0.528,0.076-0.79,0.076h-1.69V47.52z M99.839,50.073h0.93c0.16,0,0.316-0.011,0.469-0.034
		c0.152-0.022,0.29-0.069,0.413-0.141c0.123-0.07,0.222-0.17,0.296-0.298c0.075-0.127,0.112-0.296,0.112-0.506
		c0-0.188-0.035-0.34-0.104-0.456s-0.162-0.208-0.276-0.276s-0.246-0.115-0.393-0.141s-0.295-0.038-0.444-0.038h-1.002V50.073z
		 M99.839,52.883h1.138c0.166,0,0.33-0.019,0.493-0.056c0.163-0.036,0.31-0.096,0.44-0.179c0.131-0.082,0.236-0.189,0.316-0.323
		c0.08-0.133,0.12-0.297,0.12-0.489c0-0.21-0.039-0.386-0.116-0.528c-0.078-0.142-0.179-0.255-0.305-0.34
		c-0.125-0.086-0.27-0.146-0.433-0.18c-0.163-0.033-0.33-0.051-0.501-0.051h-1.154V52.883z"/>
	<path d="M104.214,47.52h0.673v5.363h2.596v0.664h-3.269V47.52z"/>
	<path d="M110.857,53.7c-0.433,0-0.83-0.08-1.19-0.238c-0.361-0.159-0.673-0.379-0.938-0.66c-0.265-0.28-0.47-0.615-0.617-1.004
		c-0.147-0.39-0.22-0.811-0.22-1.265s0.073-0.875,0.22-1.265c0.147-0.389,0.353-0.724,0.617-1.004
		c0.264-0.281,0.577-0.501,0.938-0.66c0.36-0.159,0.757-0.238,1.19-0.238s0.829,0.079,1.189,0.238
		c0.361,0.159,0.673,0.379,0.938,0.66c0.265,0.28,0.47,0.615,0.617,1.004c0.147,0.39,0.22,0.811,0.22,1.265s-0.073,0.875-0.22,1.265
		c-0.147,0.389-0.353,0.724-0.617,1.004c-0.264,0.281-0.577,0.501-0.938,0.66C111.686,53.62,111.29,53.7,110.857,53.7z
		 M110.857,53.036c0.331,0,0.634-0.065,0.909-0.196c0.275-0.13,0.511-0.309,0.709-0.536c0.198-0.227,0.351-0.492,0.461-0.796
		c0.109-0.304,0.164-0.629,0.164-0.975s-0.055-0.671-0.164-0.975c-0.11-0.304-0.263-0.569-0.461-0.796
		c-0.198-0.228-0.434-0.406-0.709-0.537c-0.275-0.13-0.578-0.195-0.909-0.195c-0.332,0-0.635,0.065-0.91,0.195
		c-0.275,0.131-0.511,0.31-0.709,0.537c-0.198,0.227-0.351,0.492-0.461,0.796c-0.109,0.304-0.164,0.629-0.164,0.975
		s0.055,0.671,0.164,0.975c0.11,0.304,0.263,0.569,0.461,0.796c0.198,0.228,0.434,0.406,0.709,0.536
		C110.222,52.971,110.525,53.036,110.857,53.036z"/>
	<path d="M114.246,47.52h0.746l1.29,5.006h0.016l1.394-5.006h0.753l1.386,5.006h0.016l1.314-5.006h0.705l-1.667,6.027h-0.729
		l-1.402-5.108h-0.016l-1.41,5.108h-0.737L114.246,47.52z"/>
	<path d="M122.619,47.52h3.565v0.664h-2.892v1.89h2.701v0.664h-2.701v2.146h3.037v0.664h-3.709V47.52z"/>
	<path d="M127.37,47.52h1.45c0.272,0,0.544,0.017,0.813,0.051s0.511,0.108,0.725,0.222s0.388,0.279,0.521,0.498
		c0.133,0.219,0.2,0.515,0.2,0.89c0,0.442-0.126,0.8-0.377,1.072s-0.599,0.446-1.041,0.52l1.61,2.775h-0.825l-1.539-2.707h-0.865
		v2.707h-0.673V47.52z M128.043,50.176h0.602c0.187,0,0.38-0.006,0.58-0.018c0.2-0.011,0.385-0.048,0.553-0.11
		c0.169-0.062,0.308-0.16,0.417-0.294c0.109-0.133,0.164-0.324,0.164-0.574c0-0.216-0.04-0.389-0.12-0.52s-0.186-0.231-0.316-0.302
		c-0.131-0.071-0.277-0.118-0.44-0.141s-0.327-0.034-0.493-0.034h-0.945V50.176z"/>
	<path d="M132.161,47.52h2.18c0.187,0,0.385,0.022,0.593,0.068c0.208,0.045,0.415,0.117,0.621,0.217
		c0.205,0.1,0.403,0.229,0.593,0.388c0.189,0.158,0.356,0.35,0.501,0.574s0.259,0.482,0.345,0.774
		c0.085,0.293,0.128,0.623,0.128,0.992s-0.043,0.699-0.128,0.992c-0.086,0.292-0.2,0.55-0.345,0.774s-0.312,0.416-0.501,0.574
		c-0.189,0.159-0.388,0.288-0.593,0.388c-0.206,0.1-0.413,0.172-0.621,0.217c-0.208,0.046-0.406,0.068-0.593,0.068h-2.18V47.52z
		 M132.835,52.883h1.281c0.326,0,0.628-0.045,0.905-0.136c0.278-0.091,0.519-0.231,0.722-0.422s0.363-0.433,0.48-0.728
		s0.177-0.65,0.177-1.064s-0.06-0.77-0.177-1.064s-0.277-0.537-0.48-0.728s-0.443-0.331-0.722-0.422
		c-0.277-0.091-0.579-0.136-0.905-0.136h-1.281V52.883z"/>
	<path d="M140.838,53.7c-0.433,0-0.829-0.08-1.189-0.238c-0.36-0.159-0.673-0.379-0.938-0.66c-0.265-0.28-0.47-0.615-0.617-1.004
		c-0.146-0.39-0.22-0.811-0.22-1.265s0.073-0.875,0.22-1.265c0.147-0.389,0.353-0.724,0.617-1.004
		c0.265-0.281,0.577-0.501,0.938-0.66s0.757-0.238,1.189-0.238s0.829,0.079,1.19,0.238c0.36,0.159,0.673,0.379,0.938,0.66
		c0.264,0.28,0.47,0.615,0.616,1.004c0.147,0.39,0.221,0.811,0.221,1.265s-0.073,0.875-0.221,1.265
		c-0.146,0.389-0.353,0.724-0.616,1.004c-0.265,0.281-0.577,0.501-0.938,0.66C141.667,53.62,141.271,53.7,140.838,53.7z
		 M140.838,53.036c0.331,0,0.635-0.065,0.91-0.196c0.274-0.13,0.511-0.309,0.709-0.536c0.197-0.227,0.351-0.492,0.46-0.796
		s0.165-0.629,0.165-0.975s-0.056-0.671-0.165-0.975s-0.263-0.569-0.46-0.796c-0.198-0.228-0.435-0.406-0.709-0.537
		c-0.275-0.13-0.579-0.195-0.91-0.195s-0.634,0.065-0.909,0.195c-0.275,0.131-0.512,0.31-0.709,0.537
		c-0.197,0.227-0.352,0.492-0.461,0.796s-0.164,0.629-0.164,0.975s0.055,0.671,0.164,0.975s0.264,0.569,0.461,0.796
		c0.197,0.228,0.434,0.406,0.709,0.536C140.204,52.971,140.507,53.036,140.838,53.036z"/>
	<path d="M147.521,53.7c-0.433,0-0.829-0.08-1.189-0.238c-0.36-0.159-0.673-0.379-0.938-0.66c-0.265-0.28-0.47-0.615-0.617-1.004
		c-0.146-0.39-0.22-0.811-0.22-1.265s0.073-0.875,0.22-1.265c0.147-0.389,0.353-0.724,0.617-1.004
		c0.265-0.281,0.577-0.501,0.938-0.66s0.757-0.238,1.189-0.238s0.829,0.079,1.19,0.238c0.36,0.159,0.673,0.379,0.938,0.66
		c0.264,0.28,0.47,0.615,0.616,1.004c0.147,0.39,0.221,0.811,0.221,1.265s-0.073,0.875-0.221,1.265
		c-0.146,0.389-0.353,0.724-0.616,1.004c-0.265,0.281-0.577,0.501-0.938,0.66C148.35,53.62,147.953,53.7,147.521,53.7z
		 M147.521,53.036c0.331,0,0.635-0.065,0.91-0.196c0.274-0.13,0.511-0.309,0.709-0.536c0.197-0.227,0.351-0.492,0.46-0.796
		s0.165-0.629,0.165-0.975s-0.056-0.671-0.165-0.975s-0.263-0.569-0.46-0.796c-0.198-0.228-0.435-0.406-0.709-0.537
		c-0.275-0.13-0.579-0.195-0.91-0.195s-0.634,0.065-0.909,0.195c-0.275,0.131-0.512,0.31-0.709,0.537
		c-0.197,0.227-0.352,0.492-0.461,0.796s-0.164,0.629-0.164,0.975s0.055,0.671,0.164,0.975s0.264,0.569,0.461,0.796
		c0.197,0.228,0.434,0.406,0.709,0.536C146.887,52.971,147.189,53.036,147.521,53.036z"/>
	<path d="M151.566,47.52h1.45c0.272,0,0.544,0.017,0.813,0.051s0.511,0.108,0.725,0.222s0.388,0.279,0.521,0.498
		c0.133,0.219,0.2,0.515,0.2,0.89c0,0.442-0.126,0.8-0.377,1.072s-0.599,0.446-1.041,0.52l1.61,2.775h-0.825l-1.539-2.707h-0.865
		v2.707h-0.673V47.52z M152.239,50.176h0.602c0.187,0,0.38-0.006,0.58-0.018c0.2-0.011,0.385-0.048,0.553-0.11
		c0.169-0.062,0.308-0.16,0.417-0.294c0.109-0.133,0.164-0.324,0.164-0.574c0-0.216-0.04-0.389-0.12-0.52s-0.186-0.231-0.316-0.302
		c-0.131-0.071-0.277-0.118-0.44-0.141s-0.327-0.034-0.493-0.034h-0.945V50.176z"/>
	<path d="M162.495,48.184h-1.875v5.363h-0.673v-5.363h-1.875V47.52h4.423V48.184z"/>
	<path d="M163.289,47.52h3.565v0.664h-2.893v1.89h2.7v0.664h-2.7v2.146h3.037v0.664h-3.71V47.52z"/>
	<path d="M170.732,48.584c-0.112-0.193-0.262-0.334-0.449-0.422c-0.187-0.088-0.382-0.132-0.585-0.132
		c-0.149,0-0.296,0.02-0.44,0.06s-0.273,0.1-0.389,0.179s-0.207,0.185-0.276,0.315c-0.069,0.13-0.104,0.283-0.104,0.459
		c0,0.137,0.021,0.257,0.061,0.362c0.04,0.104,0.105,0.2,0.196,0.285s0.214,0.165,0.368,0.238c0.155,0.074,0.345,0.147,0.569,0.222
		c0.219,0.073,0.432,0.153,0.637,0.238c0.206,0.085,0.388,0.192,0.545,0.323s0.283,0.294,0.377,0.489
		c0.093,0.196,0.14,0.441,0.14,0.736c0,0.301-0.056,0.562-0.168,0.783c-0.112,0.222-0.261,0.404-0.444,0.55
		c-0.185,0.145-0.396,0.252-0.638,0.323c-0.24,0.071-0.488,0.106-0.745,0.106c-0.165,0-0.331-0.016-0.496-0.047
		c-0.166-0.031-0.325-0.079-0.477-0.145c-0.152-0.065-0.296-0.15-0.429-0.256c-0.134-0.104-0.249-0.233-0.345-0.387l0.577-0.503
		c0.122,0.222,0.293,0.389,0.513,0.503c0.219,0.113,0.451,0.17,0.696,0.17c0.145,0,0.29-0.022,0.438-0.068
		c0.146-0.045,0.278-0.111,0.396-0.2c0.117-0.088,0.213-0.197,0.288-0.327c0.075-0.131,0.112-0.281,0.112-0.451
		c0-0.188-0.029-0.34-0.088-0.456c-0.06-0.116-0.15-0.217-0.272-0.302c-0.123-0.085-0.278-0.162-0.465-0.23
		c-0.188-0.067-0.406-0.147-0.657-0.238c-0.203-0.067-0.39-0.146-0.561-0.233s-0.319-0.196-0.445-0.324
		c-0.125-0.127-0.224-0.28-0.296-0.459c-0.072-0.18-0.108-0.394-0.108-0.644c0-0.289,0.054-0.542,0.16-0.758
		c0.106-0.215,0.251-0.396,0.433-0.54s0.388-0.254,0.617-0.328c0.229-0.073,0.47-0.11,0.721-0.11c0.321,0,0.613,0.053,0.878,0.157
		c0.265,0.105,0.501,0.288,0.709,0.55L170.732,48.584z"/>
	<path d="M176.301,48.184h-1.875v5.363h-0.673v-5.363h-1.875V47.52h4.423V48.184z"/>
	<path d="M177.094,47.52h0.673v6.027h-0.673V47.52z"/>
	<path d="M179.177,47.52h0.85l3.285,5.006h0.016V47.52H184v6.027h-0.85l-3.284-5.006h-0.017v5.006h-0.673V47.52z"/>
	<path d="M190.233,53.139c-0.326,0.192-0.669,0.335-1.029,0.425c-0.36,0.091-0.726,0.137-1.094,0.137
		c-0.443,0-0.85-0.077-1.218-0.229c-0.369-0.153-0.688-0.369-0.958-0.647c-0.27-0.278-0.479-0.611-0.629-1s-0.224-0.819-0.224-1.29
		c0-0.477,0.078-0.909,0.236-1.299c0.157-0.389,0.375-0.721,0.652-0.995c0.278-0.275,0.602-0.49,0.97-0.644s0.767-0.229,1.194-0.229
		c0.373,0,0.732,0.06,1.077,0.179s0.653,0.323,0.926,0.613l-0.505,0.562c-0.192-0.222-0.426-0.392-0.701-0.511
		s-0.557-0.179-0.846-0.179c-0.325,0-0.627,0.062-0.905,0.188c-0.277,0.125-0.52,0.298-0.725,0.519
		c-0.206,0.222-0.366,0.485-0.481,0.792c-0.114,0.307-0.172,0.642-0.172,1.005c0,0.357,0.058,0.689,0.172,0.996
		c0.115,0.307,0.275,0.571,0.481,0.796c0.205,0.225,0.452,0.398,0.741,0.523c0.288,0.125,0.605,0.188,0.953,0.188
		c0.229,0,0.47-0.03,0.721-0.09s0.481-0.146,0.689-0.259V50.84h-1.306v-0.664h1.979V53.139z"/>
</g>
<g>
	<path fill="#ED1F24" d="M46.772,13.434c0.632,0.906,1.087,1.679,1.367,2.319c0.412,0.765,0.801,1.796,1.168,3.092
		c0.441,1.562,0.662,3.686,0.662,6.371v15.248h-6.371V24.489c0-5.371-2.285-8.963-6.855-10.774
		c-1.043-0.312-1.962-0.476-2.755-0.491c-0.793,0.016-1.705,0.18-2.733,0.491c-4.571,1.812-6.856,5.403-6.856,10.774v15.975h-6.393
		V25.216c0-2.686,0.22-4.81,0.661-6.371c0.367-1.296,0.757-2.327,1.168-3.092c0.279-0.656,0.742-1.429,1.389-2.319
		c3.424-4.465,7.679-6.698,12.764-6.698C39.071,6.735,43.333,8.969,46.772,13.434z"/>
	<path fill="#ED1F24" d="M85.239,6.735v6.534l-14.836,0.023c-2.586,0-4.57,0.492-5.952,1.476c-1.955,1.125-3.41,3.101-4.365,5.927
		c-0.279,0.687-0.419,2.639-0.419,5.855v13.913h-6.393V25.356c0-3.686,0.441-6.512,1.323-8.479c0.764-1.827,1.83-3.481,3.196-4.966
		c1.602-1.67,3.115-2.834,4.541-3.489c2.307-1.093,4.423-1.64,6.349-1.64L85.239,6.735z M68.684,20.367h16.555v6.512H68.684V20.367z
		"/>
	<path fill="#ED1F24" d="M88.545,6.735h6.371v33.729h-6.371V6.735z"/>
	<path fill="#ED1F24" d="M98.354,6.735h6.393v15.95c0,4.467,1.609,7.715,4.828,9.744c1.411,0.983,3.285,1.476,5.621,1.476h15.123
		v6.559h-14.902c-4.027,0-7.252-0.898-9.677-2.694c-0.676-0.358-1.69-1.232-3.042-2.623c-1.749-2.092-2.932-4.2-3.549-6.324
		c-0.529-1.607-0.793-3.911-0.793-6.909V6.735z"/>
</g>
<linearGradient id="SVGID_1_" gradientUnits="userSpaceOnUse" x1="-496.1362" y1="-16.356" x2="-462.3081" y2="-16.356" gradientTransform="matrix(0 -1 1 0 27.1904 -455.5605)">
	<stop  offset="0" style="stop-color:#662D91"/>
	<stop  offset="0.2689" style="stop-color:#1C75BC"/>
	<stop  offset="0.3934" style="stop-color:#2BB673"/>
	<stop  offset="0.5519" style="stop-color:#FFF200"/>
	<stop  offset="0.6927" style="stop-color:#F7941E"/>
	<stop  offset="0.8339" style="stop-color:#F05223"/>
	<stop  offset="0.982" style="stop-color:#ED1F24"/>
</linearGradient>
<rect x="7.658" y="6.748" fill="url(#SVGID_1_)" width="6.352" height="33.828"/>
<text transform="matrix(0.9411 0 0 1 241.0303 13.3691)" fill="#ED1F24" font-family="'Avenir-Light'" font-size="8.7948">®</text>
<g>
	<path fill="#ED1F24" d="M237.468,52.615c0.133,0,0.245,0.05,0.338,0.147c0.093,0.099,0.139,0.219,0.139,0.358
		c0,0.141-0.049,0.261-0.146,0.359c-0.099,0.098-0.208,0.147-0.33,0.147s-0.231-0.05-0.329-0.147
		c-0.099-0.099-0.147-0.219-0.147-0.359c0-0.14,0.047-0.26,0.14-0.358C237.223,52.665,237.336,52.615,237.468,52.615z"/>
	<path fill="#ED1F24" d="M239.127,47.198h0.619v3.004h0.017c0.169-0.214,0.366-0.38,0.591-0.498
		c0.226-0.118,0.473-0.177,0.743-0.177c0.291,0,0.557,0.052,0.798,0.156c0.24,0.104,0.445,0.249,0.615,0.435
		c0.169,0.186,0.302,0.404,0.397,0.658c0.095,0.253,0.143,0.528,0.143,0.826c0,0.299-0.048,0.574-0.143,0.827
		c-0.096,0.253-0.227,0.473-0.394,0.658s-0.364,0.33-0.592,0.435c-0.228,0.104-0.471,0.156-0.73,0.156
		c-0.333,0-0.626-0.078-0.877-0.232c-0.252-0.154-0.436-0.345-0.552-0.569h-0.017v0.7h-0.619V47.198z M239.746,51.603
		c0,0.208,0.031,0.401,0.092,0.578c0.061,0.178,0.149,0.332,0.266,0.464c0.116,0.133,0.256,0.236,0.417,0.312
		s0.343,0.114,0.544,0.114s0.383-0.038,0.544-0.114s0.301-0.18,0.417-0.312c0.116-0.132,0.205-0.286,0.266-0.464
		c0.062-0.177,0.092-0.37,0.092-0.578s-0.03-0.4-0.092-0.577c-0.061-0.178-0.149-0.332-0.266-0.465
		c-0.116-0.132-0.256-0.236-0.417-0.312c-0.161-0.076-0.343-0.114-0.544-0.114s-0.383,0.038-0.544,0.114
		c-0.161,0.075-0.301,0.18-0.417,0.312c-0.116,0.133-0.205,0.287-0.266,0.465C239.777,51.202,239.746,51.395,239.746,51.603z"/>
	<path fill="#ED1F24" d="M247.329,52.86c-0.222,0.304-0.466,0.516-0.73,0.637s-0.571,0.182-0.921,0.182
		c-0.291,0-0.553-0.055-0.786-0.165c-0.232-0.109-0.43-0.257-0.592-0.442c-0.161-0.186-0.285-0.405-0.373-0.658
		c-0.087-0.253-0.131-0.523-0.131-0.811c0-0.304,0.048-0.583,0.144-0.839c0.095-0.256,0.228-0.476,0.396-0.658
		s0.37-0.325,0.604-0.427c0.233-0.101,0.487-0.151,0.763-0.151c0.259,0,0.497,0.046,0.714,0.14c0.218,0.093,0.404,0.228,0.561,0.404
		c0.155,0.178,0.276,0.394,0.361,0.649c0.084,0.257,0.127,0.548,0.127,0.874v0.211h-3.002c0.011,0.168,0.049,0.33,0.115,0.484
		c0.066,0.155,0.152,0.29,0.258,0.405c0.106,0.115,0.23,0.207,0.373,0.274c0.144,0.067,0.3,0.102,0.469,0.102
		c0.271,0,0.498-0.051,0.684-0.152c0.185-0.102,0.352-0.25,0.5-0.447L247.329,52.86z M246.798,51.248
		c-0.011-0.337-0.114-0.607-0.31-0.81c-0.196-0.202-0.466-0.304-0.811-0.304c-0.344,0-0.622,0.102-0.834,0.304
		c-0.211,0.202-0.339,0.473-0.381,0.81H246.798z"/>
</g>
<g id="XMLID_4_">
	<g>
		<polygon fill="#ED1F24" points="241.062,30.119 241.034,31.089 240.978,32.048 240.884,33.008 240.743,33.957 240.573,34.906 
			240.366,35.846 240.122,36.775 239.85,37.694 239.529,38.604 239.182,39.493 238.796,40.362 234.225,37.375 234.554,36.505 
			234.846,35.636 235.09,34.736 235.297,33.837 235.457,32.917 234.525,32.458 233.585,32.028 232.636,31.639 231.667,31.278 
			230.688,30.959 229.691,30.679 228.694,30.429 227.688,30.229 226.682,30.06 225.666,29.93 225.647,29.489 225.601,29.06 
			225.534,28.63 225.431,28.2 226.484,28.041 227.547,27.91 228.601,27.831 229.663,27.801 230.726,27.801 231.789,27.851 
			232.842,27.931 233.896,28.061 234.949,28.23 235.993,28.45 237.027,28.7 238.053,29 239.068,29.33 240.065,29.709 		"/>
		<polygon fill="#ED1F24" points="240.188,23.523 240.423,24.453 235.109,25.282 234.846,24.403 234.535,23.533 234.178,22.684 
			233.792,21.845 233.359,21.035 232.372,21.314 231.394,21.625 230.425,21.984 229.466,22.374 228.525,22.794 227.594,23.254 
			226.682,23.753 225.788,24.283 224.913,24.843 224.058,25.442 223.775,25.112 223.484,24.812 223.164,24.533 222.835,24.272 
			223.54,23.424 224.274,22.614 225.045,21.824 225.835,21.075 226.645,20.346 227.49,19.656 228.355,18.996 229.24,18.377 
			230.143,17.797 231.074,17.237 232.024,16.728 232.983,16.258 233.962,15.818 234.958,15.419 235.965,15.059 236.529,15.818 
			237.065,16.588 237.573,17.397 238.043,18.217 238.485,19.057 238.899,19.916 239.275,20.795 239.614,21.694 239.915,22.604 		"/>
		<polygon fill="#ED1F24" points="235.354,44.141 235.861,45.14 235.26,45.859 234.629,46.559 233.98,47.229 233.303,47.868 
			232.598,48.478 231.873,49.057 231.121,49.597 230.35,50.116 229.569,50.586 228.761,51.036 227.942,51.445 226.239,46.02 
			227.021,45.589 227.764,45.109 228.497,44.6 229.202,44.04 229.88,43.451 229.447,42.461 228.986,41.492 228.487,40.532 
			227.961,39.604 227.406,38.684 226.823,37.794 226.202,36.925 225.553,36.085 224.886,35.266 224.18,34.467 224.434,34.116 
			224.659,33.757 224.866,33.377 225.055,32.987 225.958,33.577 226.842,34.207 227.697,34.876 228.534,35.565 229.344,36.295 
			230.134,37.055 230.886,37.854 231.619,38.674 232.325,39.514 232.993,40.393 233.632,41.292 234.234,42.222 234.817,43.171 		"/>
		<polygon fill="#ED1F24" points="232.052,11.151 228.487,15.419 227.744,14.929 226.982,14.479 226.202,14.06 225.402,13.689 
			224.584,13.36 223.992,14.249 223.428,15.169 222.9,16.099 222.402,17.048 221.932,18.017 221.499,19.006 221.104,20.006 
			220.737,21.025 220.408,22.055 220.107,23.104 219.703,23.044 219.289,23.014 218.885,23.014 218.471,23.034 218.499,21.904 
			218.574,20.785 218.678,19.656 218.828,18.536 219.017,17.428 219.242,16.328 219.515,15.229 219.815,14.149 220.154,13.08 
			220.53,12.021 220.944,10.981 221.396,9.962 221.885,8.953 222.402,7.974 222.957,7.004 223.851,7.193 224.734,7.424 
			225.601,7.693 226.466,8.003 227.312,8.343 228.14,8.723 228.958,9.143 229.767,9.593 230.547,10.082 231.31,10.602 		"/>
		<polygon fill="#ED1F24" points="223.465,45.239 223.484,46.369 223.475,47.498 223.418,48.627 223.324,49.747 223.183,50.866 
			223.014,51.985 222.807,53.095 221.903,53.234 221.001,53.345 220.098,53.404 219.195,53.435 218.283,53.414 217.38,53.364 
			216.477,53.265 215.574,53.135 214.689,52.965 213.796,52.755 212.922,52.505 214.896,47.188 215.753,47.388 216.618,47.538 
			217.493,47.638 218.358,47.698 219.232,47.708 219.506,46.658 219.74,45.6 219.938,44.53 220.098,43.451 220.221,42.371 
			220.314,41.282 220.371,40.192 220.38,39.104 220.361,38.015 220.305,36.935 220.709,36.835 221.104,36.715 221.49,36.565 
			221.866,36.396 222.195,37.465 222.496,38.554 222.75,39.644 222.976,40.752 223.154,41.861 223.296,42.981 223.399,44.11 		"/>
		<polygon fill="#ED1F24" points="217.605,6.685 217.455,12.4 216.59,12.521 215.725,12.7 214.878,12.92 214.041,13.18 
			213.213,13.49 213.298,14.579 213.42,15.658 213.58,16.737 213.777,17.807 214.003,18.866 214.267,19.916 214.567,20.955 
			214.906,21.984 215.273,23.004 215.678,24.003 215.329,24.243 215,24.503 214.681,24.782 214.38,25.082 213.721,24.193 
			213.101,23.283 212.498,22.344 211.943,21.385 211.407,20.405 210.918,19.406 210.457,18.387 210.034,17.348 209.648,16.298 
			209.301,15.229 208.99,14.149 208.718,13.061 208.482,11.961 208.294,10.842 208.135,9.732 208.934,9.263 209.742,8.843 
			210.57,8.453 211.417,8.094 212.272,7.783 213.138,7.504 214.022,7.264 214.906,7.054 215.8,6.894 216.702,6.774 		"/>
		<polygon fill="#ED1F24" points="217.37,36.825 216.976,37.874 216.543,38.903 216.082,39.923 215.583,40.922 215.047,41.892 
			214.483,42.852 213.881,43.78 213.251,44.689 212.583,45.569 211.887,46.429 211.163,47.248 210.41,48.048 209.63,48.817 
			208.821,49.547 207.993,50.257 207.222,49.747 206.47,49.217 205.736,48.647 205.021,48.048 204.335,47.418 203.676,46.759 
			203.036,46.069 202.435,45.35 201.852,44.61 201.306,43.841 200.779,43.051 205.501,40.333 206.046,41.062 206.61,41.771 
			207.222,42.441 207.853,43.081 208.52,43.69 209.357,43.071 210.176,42.421 210.975,41.731 211.746,41.022 212.498,40.283 
			213.223,39.514 213.919,38.714 214.586,37.884 215.235,37.045 215.847,36.165 216.214,36.365 216.59,36.545 216.976,36.695 		"/>
		<polygon fill="#ED1F24" points="213.439,33.707 213.665,34.077 212.725,34.606 211.774,35.106 210.806,35.576 209.818,35.995 
			208.821,36.375 207.805,36.715 206.78,37.024 205.755,37.284 204.711,37.505 203.657,37.685 202.604,37.824 201.551,37.914 
			200.487,37.975 199.425,37.984 198.362,37.954 198.07,37.045 197.816,36.115 197.601,35.176 197.422,34.236 197.28,33.277 
			197.168,32.317 197.102,31.358 197.064,30.399 197.073,29.43 197.111,28.471 197.196,27.511 202.453,28.65 202.425,29.59 
			202.435,30.519 202.491,31.448 202.585,32.368 202.727,33.287 203.751,33.387 204.768,33.447 205.792,33.467 206.817,33.447 
			207.843,33.397 208.858,33.297 209.874,33.167 210.89,32.997 211.896,32.787 212.894,32.538 213.054,32.938 213.232,33.327 		"/>
		<polygon fill="#ED1F24" points="212.827,27.73 212.705,28.15 212.602,28.57 212.526,29 212.479,29.439 211.445,29.21 
			210.41,28.94 209.385,28.63 208.379,28.28 207.382,27.891 206.403,27.461 205.435,26.991 204.485,26.491 203.554,25.941 
			202.642,25.362 201.748,24.753 200.883,24.104 200.036,23.413 199.218,22.704 198.419,21.954 198.748,21.055 199.114,20.166 
			199.519,19.306 199.951,18.457 200.412,17.627 200.911,16.817 201.438,16.038 201.992,15.278 202.585,14.539 203.196,13.83 
			203.836,13.15 207.175,17.617 206.582,18.316 206.037,19.036 205.51,19.786 205.03,20.556 204.589,21.354 205.304,22.135 
			206.056,22.874 206.827,23.594 207.617,24.283 208.436,24.933 209.272,25.562 210.138,26.151 211.013,26.711 211.906,27.241 		"/>
	</g>
	<g>
		
			<polyline fill="none" stroke="#FFFFFF" stroke-width="0" stroke-linecap="square" stroke-linejoin="bevel" stroke-miterlimit="10" points="
			232.052,11.151 231.31,10.602 230.547,10.082 229.767,9.593 228.958,9.143 228.14,8.723 227.312,8.343 226.466,8.003 
			225.601,7.693 224.734,7.424 223.851,7.193 222.957,7.004 		"/>
		
			<polyline fill="none" stroke="#FFFFFF" stroke-width="0" stroke-linecap="square" stroke-linejoin="bevel" stroke-miterlimit="10" points="
			228.487,15.419 227.744,14.929 226.982,14.479 226.202,14.06 225.402,13.689 224.584,13.36 		"/>
		
			<polyline fill="none" stroke="#FFFFFF" stroke-width="0" stroke-linecap="square" stroke-linejoin="bevel" stroke-miterlimit="10" points="
			222.957,7.004 222.402,7.974 221.885,8.953 221.396,9.962 220.944,10.981 220.53,12.021 220.154,13.08 219.815,14.149 
			219.515,15.229 219.242,16.328 219.017,17.428 218.828,18.536 218.678,19.656 218.574,20.785 218.499,21.904 218.471,23.034 		"/>
		
			<polyline fill="none" stroke="#FFFFFF" stroke-width="0" stroke-linecap="square" stroke-linejoin="bevel" stroke-miterlimit="10" points="
			224.584,13.36 223.992,14.249 223.428,15.169 222.9,16.099 222.402,17.048 221.932,18.017 221.499,19.006 221.104,20.006 
			220.737,21.025 220.408,22.055 220.107,23.104 		"/>
		
			<line fill="none" stroke="#FFFFFF" stroke-width="0" stroke-linecap="square" stroke-linejoin="bevel" stroke-miterlimit="10" x1="228.487" y1="15.419" x2="232.052" y2="11.151"/>
		
			<polyline fill="none" stroke="#FFFFFF" stroke-width="0" stroke-linecap="square" stroke-linejoin="bevel" stroke-miterlimit="10" points="
			220.107,23.104 219.703,23.044 219.289,23.014 218.885,23.014 218.471,23.034 		"/>
		
			<polyline fill="none" stroke="#FFFFFF" stroke-width="0" stroke-linecap="square" stroke-linejoin="bevel" stroke-miterlimit="10" points="
			217.605,6.685 216.702,6.774 215.8,6.894 214.906,7.054 214.022,7.264 213.138,7.504 212.272,7.783 211.417,8.094 210.57,8.453 
			209.742,8.843 208.934,9.263 208.135,9.732 		"/>
		
			<polyline fill="none" stroke="#FFFFFF" stroke-width="0" stroke-linecap="square" stroke-linejoin="bevel" stroke-miterlimit="10" points="
			217.455,12.4 216.59,12.521 215.725,12.7 214.878,12.92 214.041,13.18 213.213,13.49 		"/>
		
			<polyline fill="none" stroke="#FFFFFF" stroke-width="0" stroke-linecap="square" stroke-linejoin="bevel" stroke-miterlimit="10" points="
			208.135,9.732 208.294,10.842 208.482,11.961 208.718,13.061 208.99,14.149 209.301,15.229 209.648,16.298 210.034,17.348 
			210.457,18.387 210.918,19.406 211.407,20.405 211.943,21.385 212.498,22.344 213.101,23.283 213.721,24.193 214.38,25.082 		"/>
		
			<polyline fill="none" stroke="#FFFFFF" stroke-width="0" stroke-linecap="square" stroke-linejoin="bevel" stroke-miterlimit="10" points="
			213.213,13.49 213.298,14.579 213.42,15.658 213.58,16.737 213.777,17.807 214.003,18.866 214.267,19.916 214.567,20.955 
			214.906,21.984 215.273,23.004 215.678,24.003 		"/>
		
			<line fill="none" stroke="#FFFFFF" stroke-width="0" stroke-linecap="square" stroke-linejoin="bevel" stroke-miterlimit="10" x1="217.455" y1="12.4" x2="217.605" y2="6.685"/>
		
			<polyline fill="none" stroke="#FFFFFF" stroke-width="0" stroke-linecap="square" stroke-linejoin="bevel" stroke-miterlimit="10" points="
			215.678,24.003 215.329,24.243 215,24.503 214.681,24.782 214.38,25.082 		"/>
		
			<polyline fill="none" stroke="#FFFFFF" stroke-width="0" stroke-linecap="square" stroke-linejoin="bevel" stroke-miterlimit="10" points="
			203.836,13.15 203.196,13.83 202.585,14.539 201.992,15.278 201.438,16.038 200.911,16.817 200.412,17.627 199.951,18.457 
			199.519,19.306 199.114,20.166 198.748,21.055 198.419,21.954 		"/>
		
			<polyline fill="none" stroke="#FFFFFF" stroke-width="0" stroke-linecap="square" stroke-linejoin="bevel" stroke-miterlimit="10" points="
			207.175,17.617 206.582,18.316 206.037,19.036 205.51,19.786 205.03,20.556 204.589,21.354 		"/>
		
			<polyline fill="none" stroke="#FFFFFF" stroke-width="0" stroke-linecap="square" stroke-linejoin="bevel" stroke-miterlimit="10" points="
			198.419,21.954 199.218,22.704 200.036,23.413 200.883,24.104 201.748,24.753 202.642,25.362 203.554,25.941 204.485,26.491 
			205.435,26.991 206.403,27.461 207.382,27.891 208.379,28.28 209.385,28.63 210.41,28.94 211.445,29.21 212.479,29.439 		"/>
		
			<polyline fill="none" stroke="#FFFFFF" stroke-width="0" stroke-linecap="square" stroke-linejoin="bevel" stroke-miterlimit="10" points="
			204.589,21.354 205.304,22.135 206.056,22.874 206.827,23.594 207.617,24.283 208.436,24.933 209.272,25.562 210.138,26.151 
			211.013,26.711 211.906,27.241 212.827,27.73 		"/>
		
			<line fill="none" stroke="#FFFFFF" stroke-width="0" stroke-linecap="square" stroke-linejoin="bevel" stroke-miterlimit="10" x1="207.175" y1="17.617" x2="203.836" y2="13.15"/>
		
			<polyline fill="none" stroke="#FFFFFF" stroke-width="0" stroke-linecap="square" stroke-linejoin="bevel" stroke-miterlimit="10" points="
			212.827,27.73 212.705,28.15 212.602,28.57 212.526,29 212.479,29.439 		"/>
		
			<polyline fill="none" stroke="#FFFFFF" stroke-width="0" stroke-linecap="square" stroke-linejoin="bevel" stroke-miterlimit="10" points="
			197.196,27.511 197.111,28.471 197.073,29.43 197.064,30.399 197.102,31.358 197.168,32.317 197.28,33.277 197.422,34.236 
			197.601,35.176 197.816,36.115 198.07,37.045 198.362,37.954 		"/>
		
			<polyline fill="none" stroke="#FFFFFF" stroke-width="0" stroke-linecap="square" stroke-linejoin="bevel" stroke-miterlimit="10" points="
			202.453,28.65 202.425,29.59 202.435,30.519 202.491,31.448 202.585,32.368 202.727,33.287 		"/>
		
			<polyline fill="none" stroke="#FFFFFF" stroke-width="0" stroke-linecap="square" stroke-linejoin="bevel" stroke-miterlimit="10" points="
			198.362,37.954 199.425,37.984 200.487,37.975 201.551,37.914 202.604,37.824 203.657,37.685 204.711,37.505 205.755,37.284 
			206.78,37.024 207.805,36.715 208.821,36.375 209.818,35.995 210.806,35.576 211.774,35.106 212.725,34.606 213.665,34.077 		"/>
		
			<polyline fill="none" stroke="#FFFFFF" stroke-width="0" stroke-linecap="square" stroke-linejoin="bevel" stroke-miterlimit="10" points="
			202.727,33.287 203.751,33.387 204.768,33.447 205.792,33.467 206.817,33.447 207.843,33.397 208.858,33.297 209.874,33.167 
			210.89,32.997 211.896,32.787 212.894,32.538 		"/>
		
			<line fill="none" stroke="#FFFFFF" stroke-width="0" stroke-linecap="square" stroke-linejoin="bevel" stroke-miterlimit="10" x1="202.453" y1="28.65" x2="197.196" y2="27.511"/>
		
			<polyline fill="none" stroke="#FFFFFF" stroke-width="0" stroke-linecap="square" stroke-linejoin="bevel" stroke-miterlimit="10" points="
			212.894,32.538 213.054,32.938 213.232,33.327 213.439,33.707 213.665,34.077 		"/>
		
			<polyline fill="none" stroke="#FFFFFF" stroke-width="0" stroke-linecap="square" stroke-linejoin="bevel" stroke-miterlimit="10" points="
			200.779,43.051 201.306,43.841 201.852,44.61 202.435,45.35 203.036,46.069 203.676,46.759 204.335,47.418 205.021,48.048 
			205.736,48.647 206.47,49.217 207.222,49.747 207.993,50.257 		"/>
		
			<polyline fill="none" stroke="#FFFFFF" stroke-width="0" stroke-linecap="square" stroke-linejoin="bevel" stroke-miterlimit="10" points="
			205.501,40.333 206.046,41.062 206.61,41.771 207.222,42.441 207.853,43.081 208.52,43.69 		"/>
		
			<polyline fill="none" stroke="#FFFFFF" stroke-width="0" stroke-linecap="square" stroke-linejoin="bevel" stroke-miterlimit="10" points="
			207.993,50.257 208.821,49.547 209.63,48.817 210.41,48.048 211.163,47.248 211.887,46.429 212.583,45.569 213.251,44.689 
			213.881,43.78 214.483,42.852 215.047,41.892 215.583,40.922 216.082,39.923 216.543,38.903 216.976,37.874 217.37,36.825 		"/>
		
			<polyline fill="none" stroke="#FFFFFF" stroke-width="0" stroke-linecap="square" stroke-linejoin="bevel" stroke-miterlimit="10" points="
			208.52,43.69 209.357,43.071 210.176,42.421 210.975,41.731 211.746,41.022 212.498,40.283 213.223,39.514 213.919,38.714 
			214.586,37.884 215.235,37.045 215.847,36.165 		"/>
		
			<line fill="none" stroke="#FFFFFF" stroke-width="0" stroke-linecap="square" stroke-linejoin="bevel" stroke-miterlimit="10" x1="205.501" y1="40.333" x2="200.779" y2="43.051"/>
		
			<polyline fill="none" stroke="#FFFFFF" stroke-width="0" stroke-linecap="square" stroke-linejoin="bevel" stroke-miterlimit="10" points="
			215.847,36.165 216.214,36.365 216.59,36.545 216.976,36.695 217.37,36.825 		"/>
		
			<polyline fill="none" stroke="#FFFFFF" stroke-width="0" stroke-linecap="square" stroke-linejoin="bevel" stroke-miterlimit="10" points="
			212.922,52.505 213.796,52.755 214.689,52.965 215.574,53.135 216.477,53.265 217.38,53.364 218.283,53.414 219.195,53.435 
			220.098,53.404 221.001,53.345 221.903,53.234 222.807,53.095 		"/>
		
			<polyline fill="none" stroke="#FFFFFF" stroke-width="0" stroke-linecap="square" stroke-linejoin="bevel" stroke-miterlimit="10" points="
			214.896,47.188 215.753,47.388 216.618,47.538 217.493,47.638 218.358,47.698 219.232,47.708 		"/>
		
			<polyline fill="none" stroke="#FFFFFF" stroke-width="0" stroke-linecap="square" stroke-linejoin="bevel" stroke-miterlimit="10" points="
			222.807,53.095 223.014,51.985 223.183,50.866 223.324,49.747 223.418,48.627 223.475,47.498 223.484,46.369 223.465,45.239 
			223.399,44.11 223.296,42.981 223.154,41.861 222.976,40.752 222.75,39.644 222.496,38.554 222.195,37.465 221.866,36.396 		"/>
		
			<polyline fill="none" stroke="#FFFFFF" stroke-width="0" stroke-linecap="square" stroke-linejoin="bevel" stroke-miterlimit="10" points="
			219.232,47.708 219.506,46.658 219.74,45.6 219.938,44.53 220.098,43.451 220.221,42.371 220.314,41.282 220.371,40.192 
			220.38,39.104 220.361,38.015 220.305,36.935 		"/>
		
			<line fill="none" stroke="#FFFFFF" stroke-width="0" stroke-linecap="square" stroke-linejoin="bevel" stroke-miterlimit="10" x1="214.896" y1="47.188" x2="212.922" y2="52.505"/>
		
			<polyline fill="none" stroke="#FFFFFF" stroke-width="0" stroke-linecap="square" stroke-linejoin="bevel" stroke-miterlimit="10" points="
			220.305,36.935 220.709,36.835 221.104,36.715 221.49,36.565 221.866,36.396 		"/>
		
			<polyline fill="none" stroke="#FFFFFF" stroke-width="0" stroke-linecap="square" stroke-linejoin="bevel" stroke-miterlimit="10" points="
			227.942,51.445 228.761,51.036 229.569,50.586 230.35,50.116 231.121,49.597 231.873,49.057 232.598,48.478 233.303,47.868 
			233.98,47.229 234.629,46.559 235.26,45.859 235.861,45.14 		"/>
		
			<polyline fill="none" stroke="#FFFFFF" stroke-width="0" stroke-linecap="square" stroke-linejoin="bevel" stroke-miterlimit="10" points="
			226.239,46.02 227.021,45.589 227.764,45.109 228.497,44.6 229.202,44.04 229.88,43.451 		"/>
		
			<polyline fill="none" stroke="#FFFFFF" stroke-width="0" stroke-linecap="square" stroke-linejoin="bevel" stroke-miterlimit="10" points="
			235.861,45.14 235.354,44.141 234.817,43.171 234.234,42.222 233.632,41.292 232.993,40.393 232.325,39.514 231.619,38.674 
			230.886,37.854 230.134,37.055 229.344,36.295 228.534,35.565 227.697,34.876 226.842,34.207 225.958,33.577 225.055,32.987 		"/>
		
			<polyline fill="none" stroke="#FFFFFF" stroke-width="0" stroke-linecap="square" stroke-linejoin="bevel" stroke-miterlimit="10" points="
			229.88,43.451 229.447,42.461 228.986,41.492 228.487,40.532 227.961,39.604 227.406,38.684 226.823,37.794 226.202,36.925 
			225.553,36.085 224.886,35.266 224.18,34.467 		"/>
		
			<line fill="none" stroke="#FFFFFF" stroke-width="0" stroke-linecap="square" stroke-linejoin="bevel" stroke-miterlimit="10" x1="226.239" y1="46.02" x2="227.942" y2="51.445"/>
		
			<polyline fill="none" stroke="#FFFFFF" stroke-width="0" stroke-linecap="square" stroke-linejoin="bevel" stroke-miterlimit="10" points="
			224.18,34.467 224.434,34.116 224.659,33.757 224.866,33.377 225.055,32.987 		"/>
		
			<polyline fill="none" stroke="#FFFFFF" stroke-width="0" stroke-linecap="square" stroke-linejoin="bevel" stroke-miterlimit="10" points="
			238.796,40.362 239.182,39.493 239.529,38.604 239.85,37.694 240.122,36.775 240.366,35.846 240.573,34.906 240.743,33.957 
			240.884,33.008 240.978,32.048 241.034,31.089 241.062,30.119 		"/>
		
			<polyline fill="none" stroke="#FFFFFF" stroke-width="0" stroke-linecap="square" stroke-linejoin="bevel" stroke-miterlimit="10" points="
			234.225,37.375 234.554,36.505 234.846,35.636 235.09,34.736 235.297,33.837 235.457,32.917 		"/>
		
			<polyline fill="none" stroke="#FFFFFF" stroke-width="0" stroke-linecap="square" stroke-linejoin="bevel" stroke-miterlimit="10" points="
			241.062,30.119 240.065,29.709 239.068,29.33 238.053,29 237.027,28.7 235.993,28.45 234.949,28.23 233.896,28.061 
			232.842,27.931 231.789,27.851 230.726,27.801 229.663,27.801 228.601,27.831 227.547,27.91 226.484,28.041 225.431,28.2 		"/>
		
			<polyline fill="none" stroke="#FFFFFF" stroke-width="0" stroke-linecap="square" stroke-linejoin="bevel" stroke-miterlimit="10" points="
			235.457,32.917 234.525,32.458 233.585,32.028 232.636,31.639 231.667,31.278 230.688,30.959 229.691,30.679 228.694,30.429 
			227.688,30.229 226.682,30.06 225.666,29.93 		"/>
		
			<line fill="none" stroke="#FFFFFF" stroke-width="0" stroke-linecap="square" stroke-linejoin="bevel" stroke-miterlimit="10" x1="234.225" y1="37.375" x2="238.796" y2="40.362"/>
		
			<polyline fill="none" stroke="#FFFFFF" stroke-width="0" stroke-linecap="square" stroke-linejoin="bevel" stroke-miterlimit="10" points="
			225.666,29.93 225.647,29.489 225.601,29.06 225.534,28.63 225.431,28.2 		"/>
		
			<polyline fill="none" stroke="#FFFFFF" stroke-width="0" stroke-linecap="square" stroke-linejoin="bevel" stroke-miterlimit="10" points="
			240.423,24.453 240.188,23.523 239.915,22.604 239.614,21.694 239.275,20.795 238.899,19.916 238.485,19.057 238.043,18.217 
			237.573,17.397 237.065,16.588 236.529,15.818 235.965,15.059 		"/>
		
			<polyline fill="none" stroke="#FFFFFF" stroke-width="0" stroke-linecap="square" stroke-linejoin="bevel" stroke-miterlimit="10" points="
			235.109,25.282 234.846,24.403 234.535,23.533 234.178,22.684 233.792,21.845 233.359,21.035 		"/>
		
			<polyline fill="none" stroke="#FFFFFF" stroke-width="0" stroke-linecap="square" stroke-linejoin="bevel" stroke-miterlimit="10" points="
			235.965,15.059 234.958,15.419 233.962,15.818 232.983,16.258 232.024,16.728 231.074,17.237 230.143,17.797 229.24,18.377 
			228.355,18.996 227.49,19.656 226.645,20.346 225.835,21.075 225.045,21.824 224.274,22.614 223.54,23.424 222.835,24.272 		"/>
		
			<polyline fill="none" stroke="#FFFFFF" stroke-width="0" stroke-linecap="square" stroke-linejoin="bevel" stroke-miterlimit="10" points="
			233.359,21.035 232.372,21.314 231.394,21.625 230.425,21.984 229.466,22.374 228.525,22.794 227.594,23.254 226.682,23.753 
			225.788,24.283 224.913,24.843 224.058,25.442 		"/>
		
			<line fill="none" stroke="#FFFFFF" stroke-width="0" stroke-linecap="square" stroke-linejoin="bevel" stroke-miterlimit="10" x1="235.109" y1="25.282" x2="240.423" y2="24.453"/>
		
			<polyline fill="none" stroke="#FFFFFF" stroke-width="0" stroke-linecap="square" stroke-linejoin="bevel" stroke-miterlimit="10" points="
			224.058,25.442 223.775,25.112 223.484,24.812 223.164,24.533 222.835,24.272 		"/>
	</g>
</g>
</svg>
