<svg height='100px' width='100px'  fill="#45BD6A" xmlns="http://www.w3.org/2000/svg" xmlns:xlink="http://www.w3.org/1999/xlink" viewBox="0 0 78 78" version="1.1" x="0px" y="0px"><title>check</title><desc>Created with Sketch.</desc><g stroke="none" stroke-width="1" fill="none" fill-rule="evenodd"><g transform="translate(-23.000000, -347.000000)" fill="#45BD6A"><path d="M55.6903659,402.774768 C55.8751908,402.68141 56.0485565,402.557571 56.2029302,402.403198 L83.7772668,374.828861 C84.5578303,374.048298 84.56039,372.780729 83.7801564,372.000496 L82.3629915,370.583331 C81.5854198,369.805759 80.3164556,369.804391 79.5346261,370.58622 L54.7858011,395.335045 L43.8294762,384.37872 C43.0439788,383.593223 41.7804749,383.594728 41.0002413,384.374961 L39.5830765,385.792126 C38.8055047,386.569698 38.8045258,387.839051 39.5868355,388.621361 L53.3678026,402.402328 C53.9995008,403.034026 54.9403448,403.156739 55.6903659,402.774768 Z M23,386 C23,364.460895 40.4561589,347 62,347 C83.5391052,347 101,364.456159 101,386 C101,407.539105 83.5438411,425 62,425 C40.4608948,425 23,407.543841 23,386 Z"></path></g></g></svg>