<svg height='100px' width='100px'  fill="#ED1F24" xmlns:x="http://ns.adobe.com/Extensibility/1.0/" xmlns:i="http://ns.adobe.com/AdobeIllustrator/10.0/" xmlns:graph="http://ns.adobe.com/Graphs/1.0/" xmlns="http://www.w3.org/2000/svg" xmlns:xlink="http://www.w3.org/1999/xlink" version="1.1" x="0px" y="0px" viewBox="0 0 100 100" style="enable-background:new 0 0 100 100;" xml:space="preserve"><g><g i:extraneous="self"><g><path d="M86.6,2.5H34.2c-6,0-10.9,4.9-10.9,10.9v10h-10c-6,0-10.9,4.9-10.9,10.9v52.4c0,6,4.9,10.9,10.9,10.9h52.4     c6,0,10.9-4.9,10.9-10.9v-10h10c6,0,10.9-4.9,10.9-10.9V13.4C97.5,7.4,92.6,2.5,86.6,2.5z M70.4,86.6c0,2.6-2.1,4.7-4.7,4.7H13.4     c-2.6,0-4.7-2.1-4.7-4.7V34.2c0-2.6,2.1-4.7,4.7-4.7h52.4c2.6,0,4.7,2.1,4.7,4.7V86.6z M91.3,65.8c0,2.6-2.1,4.7-4.7,4.7h-10     V34.2c0-6-4.9-10.9-10.9-10.9H29.5v-10c0-2.6,2.1-4.7,4.7-4.7h52.4c2.6,0,4.7,2.1,4.7,4.7V65.8z"></path><path d="M56,57.3H42.7V44c0-1.7-1.4-3.1-3.1-3.1s-3.1,1.4-3.1,3.1v13.3H23.1c-1.7,0-3.1,1.4-3.1,3.1s1.4,3.1,3.1,3.1h13.3v13.3     c0,1.7,1.4,3.1,3.1,3.1s3.1-1.4,3.1-3.1V63.5H56c1.7,0,3.1-1.4,3.1-3.1S57.7,57.3,56,57.3z"></path></g></g></g></svg>