<?xml version="1.0" encoding="utf-8"?>
<!-- Generator: Adobe Illustrator 21.1.0, SVG Export Plug-In . SVG Version: 6.00 Build 0)  -->
<svg version="1.1"
	 id="Laag_1" xmlns:cc="http://creativecommons.org/ns#" xmlns:dc="http://purl.org/dc/elements/1.1/" xmlns:inkscape="http://www.inkscape.org/namespaces/inkscape" xmlns:rdf="http://www.w3.org/1999/02/22-rdf-syntax-ns#" xmlns:sodipodi="http://sodipodi.sourceforge.net/DTD/sodipodi-0.dtd" xmlns:svg="http://www.w3.org/2000/svg"
	 xmlns="http://www.w3.org/2000/svg" xmlns:xlink="http://www.w3.org/1999/xlink" x="0px" y="0px" viewBox="0 0 82 58"
	 style="enable-background:new 0 0 82 58;" xml:space="preserve">
<g transform="translate(0,-952.36218)" fill="#ED1F24">
	<path d="M8,952.4c-4.4,0-8,3.7-8,8.2v41.5c0,4.5,3.6,8.3,8,8.3h66c4.4,0,8-3.8,8-8.3v-41.5c0-4.5-3.6-8.2-8-8.2L8,952.4L8,952.4z
		 M8,956.4h66c0.6,0,1.2,0.2,1.7,0.4l-32.2,30.6c-1.5,1.4-3.4,1.4-4.9,0L6.3,956.8C6.8,956.5,7.4,956.4,8,956.4z M4.1,960.1
		l22.8,21.6l-22.4,22.4c-0.3-0.6-0.4-1.2-0.4-2v-41.5C4,960.4,4,960.3,4.1,960.1L4.1,960.1z M77.9,960.1c0,0.2,0.1,0.3,0.1,0.5v41.5
		c0,0.7-0.2,1.4-0.4,1.9l-22.3-22.4L77.9,960.1L77.9,960.1z M52.3,984.5l21.9,21.9c-0.1,0-0.1,0-0.2,0H8c-0.1,0-0.1,0-0.2,0
		l21.9-21.9l6.1,5.8c2.9,2.8,7.5,2.8,10.4,0L52.3,984.5z"/>
</g>
</svg>
