<?xml version="1.0" encoding="utf-8"?>
<!-- Generator: Adobe Illustrator 21.1.0, SVG Export Plug-In . SVG Version: 6.00 Build 0)  -->
<svg version="1.1" id="Laag_1" xmlns="http://www.w3.org/2000/svg" xmlns:xlink="http://www.w3.org/1999/xlink" x="0px" y="0px"
	 viewBox="0 0 100 100" style="enable-background:new 0 0 100 100;" xml:space="preserve" fill="#ED1F24">
<path d="M87.7,95.9H13.3c-4.5,0-8.1-3.6-8.1-8.1V13.2c0-4.5,3.6-8.1,8.1-8.1h74.4c4.5,0,8.1,3.6,8.1,8.1v74.5
	C95.8,92.3,92.2,95.9,87.7,95.9z M89.7,14.2c0-1.7-1.4-3-3-3H14.3c-1.7,0-3,1.4-3,3v72.6c0,1.7,1.4,3,3,3h72.5c1.7,0,3-1.4,3-3V14.2
	H89.7z"/>
</svg>
