<svg height='100px' width='100px'  fill="#ED1F24" xmlns="http://www.w3.org/2000/svg" xmlns:xlink="http://www.w3.org/1999/xlink" version="1.1" x="0px" y="0px" viewBox="0 0 100 100" enable-background="new 0 0 100 100" xml:space="preserve"><path d="M50,95h32.5c1.4,0,2.5-1.1,2.5-2.5v-40h7.5c2.2,0,3.3-2.7,1.8-4.3L51.8,5.7c-1-1-2.6-1-3.5,0l-4.8,4.8  c-0.7,0.7-0.9,1.8-0.5,2.8l8.9,20.8l-5.8,3.8c-0.5,0.3-0.9,0.8-1,1.4l-5,17.5c-0.4,1.3,0.3,2.6,1.6,3.1l5.8,1.9v30.7  C47.5,93.9,48.6,95,50,95z M45.6,55.9l4.1-14.3l6.7-4.5c1-0.7,1.4-2,0.9-3.1l-9.1-21.2L50,11l36.5,36.5h-4c-1.4,0-2.5,1.1-2.5,2.5  v40H52.5V60c0-1.1-0.7-2-1.7-2.4L45.6,55.9z"></path><path d="M7.5,52.5H15v40c0,1.4,1.1,2.5,2.5,2.5h22.7c1.3,0,2.4-1,2.5-2.3l2.3-25c0.1-1.2-0.7-2.4-1.9-2.7l-7.4-1.8l4.1-12.4  C40,50.5,40,50.3,40,50V35h5c3.3-0.3,2.4-3.3,1.4-5.2c-1.2-2.4-2.4-4.9-3.7-7.3c-0.8-1.5-1.5-4.2-3-5.2c-1.7-1.2-3,0-4.1,1.1  c-7.5,7.3-14.9,14.9-22.3,22.3c-2.5,2.5-5.1,5.1-7.6,7.6C4.2,49.8,5.3,52.5,7.5,52.5z M37.6,23.4L41,30h-3.5c-1.4,0-2.5,1.1-2.5,2.5  v17.1l-4.9,14.6c-0.5,1.4,0.4,2.9,1.8,3.2l7.9,2L37.9,90H20V50c0-1.4-1.1-2.5-2.5-2.5h-4L37.6,23.4z"></path></svg>