<svg height='100px' width='100px'  fill="#777777" xmlns="http://www.w3.org/2000/svg" xmlns:xlink="http://www.w3.org/1999/xlink" xml:space="preserve" version="1.1" style="shape-rendering:geometricPrecision;text-rendering:geometricPrecision;image-rendering:optimizeQuality;" viewBox="0 0 290 316" x="0px" y="0px" fill-rule="evenodd" clip-rule="evenodd"><defs><style type="text/css">

    .fil0 {fill:#777777;fill-rule:nonzero}

  </style></defs><g><path class="fil0" d="M60 296l0 -115c0,-6 5,-10 10,-10l150 0c5,0 10,5 10,10l0 115 27 0c8,0 13,-8 13,-15l0 -185 -69 -76 -7 0 0 64c0,5 -5,10 -10,10l-113 0c-6,0 -11,-5 -11,-10l0 -64 -27 0c-8,0 -13,8 -13,15l0 246c0,7 5,15 13,15l27 0zm150 0l0 -105 -130 0 0 105 130 0zm-177 -296c57,0 115,0 172,0 3,0 6,1 8,4l74 81c2,2 3,5 3,7l0 189c0,18 -14,35 -33,35l-224 0c-19,0 -33,-17 -33,-35l0 -246c0,-18 14,-35 33,-35zm141 20l-94 0 0 54 94 0 0 -54z"></path></g></svg>