<?xml version="1.0" encoding="utf-8"?>
<!-- Generator: Adobe Illustrator 21.1.0, SVG Export Plug-In . SVG Version: 6.00 Build 0)  -->
<svg version="1.1"
	 id="Laag_1" xmlns:cc="http://creativecommons.org/ns#" xmlns:dc="http://purl.org/dc/elements/1.1/" xmlns:inkscape="http://www.inkscape.org/namespaces/inkscape" xmlns:rdf="http://www.w3.org/1999/02/22-rdf-syntax-ns#" xmlns:sodipodi="http://sodipodi.sourceforge.net/DTD/sodipodi-0.dtd" xmlns:svg="http://www.w3.org/2000/svg"
	 xmlns="http://www.w3.org/2000/svg" xmlns:xlink="http://www.w3.org/1999/xlink" x="0px" y="0px" viewBox="0 0 74 67.8"
	 style="enable-background:new 0 0 74 67.8;" xml:space="preserve">
<g transform="translate(0,-952.36218)">
	<path fill="#ED1F24" d="M39.6,952.4c-14.4,0-26.8,8.8-31.9,21.3l-2-3.6c-0.5-1-1.6-1.6-2.7-1.6c-1.7,0-3,1.4-2.9,3.1c0,0.5,0.1,1,0.4,1.4l5.5,9.8
		c0.8,1.4,2.6,1.9,4,1.2l9.8-5c1.5-0.7,2.2-2.5,1.5-4s-2.5-2.2-4-1.5c-0.1,0-0.1,0.1-0.2,0.1l-3.6,1.8c4.3-10.1,14.4-17.2,26.2-17.2
		c15.8,0,28.4,12.5,28.4,28c0,15.5-12.7,28-28.4,28c-13.5,0-24.7-9.2-27.7-21.6c-0.4-1.6-2-2.6-3.6-2.2c-1.6,0.4-2.6,2-2.2,3.6
		c3.6,15,17.3,26.2,33.5,26.2c19,0,34.4-15.2,34.4-34C74,967.6,58.6,952.4,39.6,952.4z M40,967.3c-1.7,0-3,1.4-3,3c0,0,0,0,0,0v16
		c0,0.9,0.4,1.8,1.1,2.3l10,8c1.3,1,3.2,0.8,4.2-0.5c1-1.3,0.8-3.2-0.5-4.2c0,0,0,0,0,0l-8.9-7.1v-14.6
		C43.1,968.7,41.7,967.3,40,967.3C40.1,967.3,40,967.3,40,967.3z"/>
</g>
</svg>
