<?xml version="1.0" encoding="utf-8"?>
<!-- Generator: Adobe Illustrator 21.1.0, SVG Export Plug-In . SVG Version: 6.00 Build 0)  -->
<svg version="1.1"
	 id="Laag_1" xmlns:cc="http://creativecommons.org/ns#" xmlns:dc="http://purl.org/dc/elements/1.1/" xmlns:inkscape="http://www.inkscape.org/namespaces/inkscape" xmlns:rdf="http://www.w3.org/1999/02/22-rdf-syntax-ns#" xmlns:sodipodi="http://sodipodi.sourceforge.net/DTD/sodipodi-0.dtd" xmlns:svg="http://www.w3.org/2000/svg"
	 xmlns="http://www.w3.org/2000/svg" xmlns:xlink="http://www.w3.org/1999/xlink" x="0px" y="0px" viewBox="0 0 64 39.9"
	 style="enable-background:new 0 0 64 39.9;" xml:space="preserve">
<style type="text/css">
	.st0{fill:#ED1F24;}
</style>
<g transform="translate(0,-952.36218)">
	<path class="st0" d="M64,972.4c0-0.7-0.3-1.5-0.8-2.1l-16-17c-1.1-1-3.2-1.4-4.4-0.3c-1.2,1.1-1.2,3.3,0,4.4l11.3,11.9H3
		c-1.7,0-3,1.3-3,3s1.3,3,3,3h51.1l-11.3,11.9c-1,1-1.2,3.3,0,4.4c1.2,1.1,3.3,0.8,4.4-0.3l16-17C63.7,973.8,64,973.2,64,972.4z"/>
</g>
</svg>
